<svg version="1.1" id="Layer_1" xmlns="http://www.w3.org/2000/svg" xmlns:xlink="http://www.w3.org/1999/xlink" x="0px" y="0px"
	 width="100%" viewBox="0 0 1024 1024" enable-background="new 0 0 1024 1024" xml:space="preserve">
<path fill="#FFFDFA" opacity="1.000000" stroke="none" 
	d="
M646.000000,1025.000000 
	C430.666656,1025.000000 215.833328,1025.000000 1.000000,1025.000000 
	C1.000000,683.666687 1.000000,342.333344 1.000000,1.000000 
	C342.333344,1.000000 683.666687,1.000000 1025.000000,1.000000 
	C1025.000000,342.333344 1025.000000,683.666687 1025.000000,1025.000000 
	C898.833313,1025.000000 772.666687,1025.000000 646.000000,1025.000000 
M759.980713,429.622314 
	C759.980713,429.622314 759.931641,429.217529 760.016663,428.256042 
	C760.029907,393.280823 760.070496,358.305573 760.017090,323.330444 
	C760.011292,319.541809 759.570374,315.741699 759.145386,311.967834 
	C755.746582,281.785828 731.965698,263.126709 706.357300,262.176300 
	C669.945923,260.824860 633.464539,261.360229 596.076233,260.983978 
	C577.745728,260.980011 559.415222,260.957825 541.084717,260.976013 
	C506.758606,261.010071 472.432465,261.067535 437.170563,260.935608 
	C430.341614,260.927673 423.512604,260.937927 416.683746,260.908508 
	C392.373566,260.803833 368.061127,260.850891 343.754211,260.507965 
	C330.096527,260.315277 316.395050,260.426575 303.295227,264.271851 
	C280.006256,271.108002 267.168549,294.461884 266.171356,317.437317 
	C265.428101,334.561371 265.968506,351.742828 266.005829,368.898560 
	C266.049988,389.210846 266.167908,409.522980 266.125671,430.799164 
	C266.096527,466.071655 266.034729,501.344147 266.051086,536.616638 
	C266.060089,556.076050 266.200226,575.535461 266.152344,595.924377 
	C266.108856,630.077454 265.975220,664.230957 266.109955,698.383301 
	C266.132629,704.130005 266.761902,709.999939 268.054993,715.594727 
	C274.392731,743.016235 296.256866,762.394226 322.616211,762.913513 
	C360.407806,763.658020 398.216187,763.550232 436.856598,763.955872 
	C438.554901,763.932922 440.253235,763.909973 442.884644,764.036194 
	C477.269714,763.988281 511.654785,763.940430 546.765198,763.991882 
	C547.494812,763.956970 548.224426,763.922119 549.886841,764.036133 
	C558.933044,763.975647 567.979187,763.915161 577.938110,763.953491 
	C581.616699,763.919678 585.295227,763.885864 589.775757,764.007446 
	C590.859314,763.952332 591.942810,763.897278 593.752441,763.951294 
	C594.483276,763.914246 595.214050,763.877258 596.512512,763.959961 
	C596.703491,763.929443 596.894409,763.898926 598.001953,763.989380 
	C633.287415,763.692261 668.572754,763.201477 703.858459,763.168701 
	C725.950195,763.148193 754.027466,745.027100 759.001831,714.436768 
	C759.768372,709.722534 760.008972,704.876831 760.012146,700.091675 
	C760.035583,665.109131 759.936340,630.126526 760.003113,594.187317 
	C760.018433,572.396118 760.062683,550.604858 760.042419,528.813660 
	C760.011902,495.881561 759.936401,462.949554 759.980713,429.622314 
z"/>
<path fill="#FC412F" opacity="1.000000" stroke="none" 
	d="
M266.253845,429.835175 
	C266.167908,409.522980 266.049988,389.210846 266.005829,368.898560 
	C265.968506,351.742828 265.428101,334.561371 266.171356,317.437317 
	C267.168549,294.461884 280.006256,271.108002 303.295227,264.271851 
	C316.395050,260.426575 330.096527,260.315277 343.754211,260.507965 
	C368.061127,260.850891 392.373566,260.803833 416.683746,260.908508 
	C423.512604,260.937927 430.341614,260.927673 437.650696,261.253235 
	C438.130798,261.570892 438.178284,262.025116 438.110413,262.487732 
	C438.055267,318.338501 438.068054,373.726685 438.028137,429.290100 
	C437.975494,429.465393 437.811798,429.792786 437.626709,429.821838 
	C437.441650,429.850861 437.069550,429.894501 436.596741,429.878998 
	C380.072052,429.881012 324.020111,429.898499 267.682556,429.903137 
	C267.015900,429.871887 266.634857,429.853516 266.253845,429.835175 
z"/>
<path fill="#FFCC33" opacity="1.000000" stroke="none" 
	d="
M436.017395,763.806396 
	C398.216187,763.550232 360.407806,763.658020 322.616211,762.913513 
	C296.256866,762.394226 274.392731,743.016235 268.054993,715.594727 
	C266.761902,709.999939 266.132629,704.130005 266.109955,698.383301 
	C265.975220,664.230957 266.108856,630.077454 266.665070,595.462952 
	C322.760559,594.978638 378.343353,594.955811 434.279114,594.954834 
	C435.101288,594.944702 435.570465,594.912781 436.342407,594.942688 
	C436.846710,595.047607 437.048248,595.090698 437.137512,595.306885 
	C437.025177,595.479919 436.750488,595.787903 436.431671,596.086975 
	C436.090454,601.527161 436.040955,606.668396 436.050201,611.809448 
	C436.101288,640.182312 436.166687,668.555237 436.165436,697.283447 
	C436.145538,698.115784 436.187408,698.592773 436.157837,699.527954 
	C436.105499,720.307617 436.124603,740.629028 436.068909,761.295654 
	C436.045349,762.107544 436.096619,762.574158 436.099304,763.229370 
	C436.050751,763.418091 436.017395,763.806335 436.017395,763.806396 
z"/>
<path fill="#4BC488" opacity="1.000000" stroke="none" 
	d="
M436.227203,696.928101 
	C436.166687,668.555237 436.101288,640.182312 436.050201,611.809448 
	C436.040955,606.668396 436.090454,601.527161 436.548706,596.175049 
	C436.984589,595.964050 437.223785,596.132507 437.489990,596.420776 
	C438.075836,596.795593 438.395416,596.957764 438.715057,596.957886 
	C490.322754,596.980652 541.930420,597.004089 593.538025,596.924744 
	C594.697571,596.922974 595.855347,595.748779 597.046509,594.760803 
	C597.136719,593.923157 597.194336,593.446289 597.458923,593.179688 
	C597.809448,593.958374 597.952942,594.526733 598.041443,595.555176 
	C597.975159,649.858643 597.973755,703.702148 597.916077,757.545532 
	C597.913818,759.653442 597.374512,761.760742 597.085388,763.868347 
	C596.894409,763.898926 596.703491,763.929443 596.089600,763.638855 
	C594.786560,763.492554 593.906494,763.667419 593.026367,763.842285 
	C591.942810,763.897278 590.859314,763.952332 589.279297,763.549805 
	C584.762329,761.783203 580.734497,760.362000 577.025391,763.854614 
	C567.979187,763.915161 558.933044,763.975647 549.240723,763.727112 
	C547.743042,763.576294 546.891418,763.734436 546.039856,763.892578 
	C511.654785,763.940430 477.269714,763.988281 442.181824,763.704590 
	C440.319733,763.232666 439.160461,763.092407 438.000824,762.488403 
	C438.000427,708.438354 438.000427,654.852051 438.000427,601.265808 
	C437.666962,601.265381 437.333466,601.265015 437.000000,601.264587 
	C437.000000,602.901611 437.000000,604.538696 437.000000,606.175720 
	C437.000000,634.661438 437.013733,663.147217 436.966919,691.632874 
	C436.964020,693.398376 436.484802,695.163025 436.227203,696.928101 
z"/>
<path fill="#FFCC33" opacity="1.000000" stroke="none" 
	d="
M597.013062,261.089478 
	C633.464539,261.360229 669.945923,260.824860 706.357300,262.176300 
	C731.965698,263.126709 755.746582,281.785828 759.145386,311.967834 
	C759.570374,315.741699 760.011292,319.541809 760.017090,323.330444 
	C760.070496,358.305573 760.029907,393.280823 759.568604,428.724854 
	C757.785278,429.291077 756.450073,429.388458 754.713562,429.406372 
	C753.500793,429.386322 752.689270,429.445740 751.436646,429.388519 
	C746.703979,429.340363 742.412354,429.408905 737.653198,429.394226 
	C731.774353,429.374237 726.363220,429.437439 720.725464,429.423889 
	C720.498840,429.347107 720.044434,429.497009 719.582397,429.406555 
	C706.735413,429.370514 694.350403,429.424927 681.732788,429.405029 
	C681.500183,429.330688 681.033936,429.476166 680.589233,429.389465 
	C677.727783,429.361938 675.311035,429.421173 672.466797,429.368652 
	C669.395020,429.326233 666.750610,429.395569 663.676880,429.382965 
	C661.797485,429.361237 660.347473,429.421448 658.465210,429.370667 
	C655.063232,429.334503 652.093445,429.409332 648.656372,429.392548 
	C640.094177,429.358948 631.999207,429.416962 623.500610,429.364319 
	C621.433655,429.325623 619.770325,429.397552 617.653809,429.385925 
	C614.444580,429.364716 611.688538,429.427032 608.627747,429.383118 
	C607.904114,429.345581 607.485107,429.414276 606.641968,429.399597 
	C604.783508,429.376190 603.349182,429.436157 601.568604,429.384949 
	C600.502991,429.332306 599.783691,429.390778 598.764832,429.360779 
	C598.051025,429.311615 597.636780,429.350922 597.105286,429.342773 
	C596.988037,429.295288 596.949829,429.045227 596.966614,428.784882 
	C596.978882,428.350708 596.974365,428.176880 596.985840,427.622620 
	C596.985474,426.479401 596.969177,425.716644 596.969421,424.488403 
	C596.994995,369.711761 597.004028,315.400604 597.013062,261.089478 
z"/>
<path fill="#17A1D3" opacity="1.000000" stroke="none" 
	d="
M597.543701,763.928833 
	C597.374512,761.760742 597.913818,759.653442 597.916077,757.545532 
	C597.973755,703.702148 597.975159,649.858643 598.261475,595.513916 
	C598.536438,595.012634 598.980469,594.946533 599.232178,594.986938 
	C599.653687,595.022461 599.823486,595.017456 600.461914,595.044006 
	C653.614624,595.057800 706.298767,595.039978 759.205933,595.054199 
	C759.428894,595.086243 759.875732,595.143982 759.875732,595.143982 
	C759.936340,630.126526 760.035583,665.109131 760.012146,700.091675 
	C760.008972,704.876831 759.768372,709.722534 759.001831,714.436768 
	C754.027466,745.027100 725.950195,763.148193 703.858459,763.168701 
	C668.572754,763.201477 633.287415,763.692261 597.543701,763.928833 
z"/>
<path fill="#31BC76" opacity="1.000000" stroke="none" 
	d="
M759.939453,594.665649 
	C759.875732,595.143982 759.428894,595.086243 759.209473,594.798462 
	C758.984253,594.340515 758.978394,594.170227 758.979370,593.531372 
	C758.984070,540.939270 758.921021,488.815582 759.084351,436.692596 
	C759.098877,432.049347 757.782715,430.878082 753.231506,430.892334 
	C703.773010,431.047180 654.313599,431.057892 604.855286,430.871307 
	C599.899536,430.852600 598.879883,432.411041 598.893738,437.077728 
	C599.050354,489.700287 598.985779,542.323486 598.980469,594.946533 
	C598.980469,594.946533 598.536438,595.012634 598.316406,595.053833 
	C597.952942,594.526733 597.809448,593.958374 597.393433,592.717163 
	C597.103516,583.235901 597.064087,574.427490 597.072388,565.619141 
	C597.113953,521.412598 597.168091,477.206085 597.356873,432.906372 
	C597.693604,432.476562 597.613098,432.208221 597.199585,431.683716 
	C597.170593,430.702942 597.196594,430.046570 597.222534,429.390259 
	C597.636780,429.350922 598.051025,429.311615 598.964478,429.531006 
	C600.280762,429.691833 601.097778,429.593933 601.914856,429.496094 
	C603.349182,429.436157 604.783508,429.376190 606.802490,429.541382 
	C607.902283,429.674133 608.417358,429.581696 608.932434,429.489319 
	C611.688538,429.427032 614.444580,429.364716 617.935974,429.564575 
	C620.415588,429.709473 622.159851,429.592224 623.904175,429.474976 
	C631.999207,429.416962 640.094177,429.358948 648.985107,429.576691 
	C652.819763,429.728851 655.858582,429.605255 658.897400,429.481628 
	C660.347473,429.421448 661.797485,429.361237 663.996582,429.570740 
	C667.461853,429.720428 670.178040,429.600433 672.894226,429.480408 
	C675.311035,429.421173 677.727783,429.361938 680.688232,429.489868 
	C681.231873,429.676971 681.632446,429.722351 681.632446,429.722351 
	C681.632446,429.722351 681.965454,429.479370 681.965454,429.479370 
	C694.350403,429.424927 706.735413,429.370514 719.679688,429.501190 
	C720.239075,429.686310 720.626343,429.729004 720.626343,429.729004 
	C720.626343,429.729004 720.952026,429.500671 720.952026,429.500671 
	C726.363220,429.437439 731.774353,429.374237 737.997131,429.583557 
	C743.165039,429.739136 747.521423,429.622162 751.877747,429.505188 
	C752.689270,429.445740 753.500793,429.386322 755.005859,429.582275 
	C757.092957,429.897583 758.486511,429.957520 759.880005,430.017487 
	C759.936401,462.949554 760.011902,495.881561 760.042419,528.813660 
	C760.062683,550.604858 760.018433,572.396118 759.939453,594.665649 
z"/>
<path fill="#FE8C0E" opacity="1.000000" stroke="none" 
	d="
M433.926117,594.932983 
	C378.343353,594.955811 322.760559,594.978638 266.729523,594.998169 
	C266.200226,575.535461 266.060089,556.076050 266.051086,536.616638 
	C266.034729,501.344147 266.096527,466.071655 266.189758,430.317169 
	C266.634857,429.853516 267.015900,429.871887 267.692566,430.380493 
	C267.993317,483.350342 268.060333,535.830078 267.897278,588.309143 
	C267.882751,592.987671 269.253754,594.107178 273.776642,594.093872 
	C325.256195,593.942261 376.736328,593.987610 428.216278,594.037048 
	C430.119843,594.038879 432.022858,594.621155 433.926117,594.932983 
z"/>
<path fill="#FE8C0E" opacity="1.000000" stroke="none" 
	d="
M596.544678,261.036743 
	C597.004028,315.400604 596.994995,369.711761 596.680786,424.196045 
	C596.249573,422.389282 596.014282,420.409393 596.013489,418.429474 
	C595.994080,368.443420 596.001404,318.457367 595.997314,268.471313 
	C595.996826,262.034363 595.979919,262.012268 589.635864,262.012177 
	C539.150024,262.011353 488.664154,262.019623 438.178284,262.025116 
	C438.178284,262.025116 438.130798,261.570892 438.118591,261.343079 
	C472.432465,261.067535 506.758606,261.010071 541.084717,260.976013 
	C559.415222,260.957825 577.745728,260.980011 596.544678,261.036743 
z"/>
<path fill="#31BC76" opacity="1.000000" stroke="none" 
	d="
M577.481750,763.904053 
	C580.734497,760.362000 584.762329,761.783203 588.878357,763.472046 
	C585.295227,763.885864 581.616699,763.919678 577.481750,763.904053 
z"/>
<path fill="#31BC76" opacity="1.000000" stroke="none" 
	d="
M438.001221,762.952148 
	C439.160461,763.092407 440.319733,763.232666 441.715271,763.630005 
	C440.253235,763.909973 438.554901,763.932922 436.437012,763.881104 
	C436.017395,763.806335 436.050751,763.418091 436.408142,763.214111 
	C437.177399,762.990784 437.589325,762.971436 438.001221,762.952148 
z"/>
<path fill="#31BC76" opacity="1.000000" stroke="none" 
	d="
M593.389404,763.896790 
	C593.906494,763.667419 594.786560,763.492554 595.805786,763.578979 
	C595.214050,763.877258 594.483276,763.914246 593.389404,763.896790 
z"/>
<path fill="#4BC488" opacity="1.000000" stroke="none" 
	d="
M759.930359,429.819885 
	C758.486511,429.957520 757.092957,429.897583 755.407104,429.661743 
	C756.450073,429.388458 757.785278,429.291077 759.526123,429.205597 
	C759.931641,429.217529 759.980713,429.622314 759.930359,429.819885 
z"/>
<path fill="#31BC76" opacity="1.000000" stroke="none" 
	d="
M546.402527,763.942261 
	C546.891418,763.734436 547.743042,763.576294 548.774292,763.652649 
	C548.224426,763.922119 547.494812,763.956970 546.402527,763.942261 
z"/>
<path fill="#FF961C" opacity="1.000000" stroke="none" 
	d="
M434.279114,594.954834 
	C432.022858,594.621155 430.119843,594.038879 428.216278,594.037048 
	C376.736328,593.987610 325.256195,593.942261 273.776642,594.093872 
	C269.253754,594.107178 267.882751,592.987671 267.897278,588.309143 
	C268.060333,535.830078 267.993317,483.350342 267.978210,430.393402 
	C324.020111,429.898499 380.072052,429.881012 436.418488,430.272583 
	C436.475037,432.304443 436.029816,433.927094 436.029114,435.549957 
	C436.006256,488.660248 436.026093,541.770569 436.039612,594.880859 
	C435.570465,594.912781 435.101288,594.944702 434.279114,594.954834 
z"/>
<path fill="#FFFDFA" opacity="1.000000" stroke="none" 
	d="
M597.105286,429.342773 
	C597.196594,430.046570 597.170593,430.702942 597.118408,431.928833 
	C597.134033,432.665436 597.175903,432.832489 597.217773,432.999542 
	C597.168091,477.206085 597.113953,521.412598 597.072388,565.619141 
	C597.064087,574.427490 597.103516,583.235901 597.186401,592.506836 
	C597.194336,593.446289 597.136719,593.923157 596.579346,594.810425 
	C546.299500,595.241211 496.519470,595.257568 446.739410,595.297180 
	C444.754364,595.298767 442.769470,595.520447 440.441711,595.506104 
	C439.366730,595.282043 438.634521,595.191406 437.966217,594.629578 
	C438.019928,570.176270 438.028503,546.194214 437.994812,522.212097 
	C437.951569,491.405640 437.874359,460.599213 437.811798,429.792786 
	C437.811798,429.792786 437.975494,429.465393 438.268066,429.235657 
	C438.560608,429.005920 439.034485,428.871857 439.493744,428.959076 
	C492.285278,429.045929 544.617554,429.045593 596.949829,429.045227 
	C596.949829,429.045227 596.988037,429.295288 597.105286,429.342773 
z"/>
<path fill="#FF961C" opacity="1.000000" stroke="none" 
	d="
M439.034485,428.871887 
	C439.034485,428.871857 438.560608,429.005920 438.320709,429.060364 
	C438.068054,373.726685 438.055267,318.338501 438.110413,262.487732 
	C488.664154,262.019623 539.150024,262.011353 589.635864,262.012177 
	C595.979919,262.012268 595.996826,262.034363 595.997314,268.471313 
	C596.001404,318.457367 595.994080,368.443420 596.013489,418.429474 
	C596.014282,420.409393 596.249573,422.389282 596.664246,424.661560 
	C596.969177,425.716644 596.985474,426.479401 596.520386,427.619781 
	C545.615601,427.994629 495.192230,427.982117 444.768860,428.026306 
	C442.857178,428.027985 440.945923,428.577606 439.034485,428.871887 
z"/>
<path fill="#FE8C0E" opacity="1.000000" stroke="none" 
	d="
M437.626709,429.821838 
	C437.874359,460.599213 437.951569,491.405640 437.994812,522.212097 
	C438.028503,546.194214 438.019928,570.176270 437.804321,594.657776 
	C437.578522,595.157166 437.249817,595.133789 437.249817,595.133789 
	C437.048248,595.090698 436.846710,595.047607 436.342407,594.942688 
	C436.026093,541.770569 436.006256,488.660248 436.029114,435.549957 
	C436.029816,433.927094 436.475037,432.304443 436.891296,430.288086 
	C437.069550,429.894501 437.441650,429.850861 437.626709,429.821838 
z"/>
<path fill="#4BC488" opacity="1.000000" stroke="none" 
	d="
M438.000824,762.488342 
	C437.589325,762.971436 437.177399,762.990784 436.456696,763.025391 
	C436.096619,762.574158 436.045349,762.107544 436.334412,760.984253 
	C436.754425,740.339661 436.838440,720.351929 436.885040,700.364075 
	C436.886047,699.933167 436.457458,699.501160 436.229248,699.069702 
	C436.187408,698.592773 436.145538,698.115784 436.165436,697.283447 
	C436.484802,695.163025 436.964020,693.398376 436.966919,691.632874 
	C437.013733,663.147217 437.000000,634.661438 437.000000,606.175720 
	C437.000000,604.538696 437.000000,602.901611 437.000000,601.264587 
	C437.333466,601.265015 437.666962,601.265381 438.000427,601.265808 
	C438.000427,654.852051 438.000427,708.438354 438.000824,762.488342 
z"/>
<path fill="#4BC488" opacity="1.000000" stroke="none" 
	d="
M436.157837,699.527954 
	C436.457458,699.501160 436.886047,699.933167 436.885040,700.364075 
	C436.838440,720.351929 436.754425,740.339661 436.409241,760.638916 
	C436.124603,740.629028 436.105499,720.307617 436.157837,699.527954 
z"/>
<path fill="#4BC488" opacity="1.000000" stroke="none" 
	d="
M437.137512,595.306885 
	C437.249817,595.133789 437.578522,595.157166 437.740417,595.128967 
	C438.634521,595.191406 439.366730,595.282043 440.174500,595.647339 
	C439.241302,595.992188 438.232544,596.062378 437.223785,596.132507 
	C437.223785,596.132507 436.984589,595.964050 436.867554,595.875977 
	C436.750488,595.787903 437.025177,595.479919 437.137512,595.306885 
z"/>
<path fill="#31BC76" opacity="1.000000" stroke="none" 
	d="
M437.489990,596.420776 
	C438.232544,596.062378 439.241302,595.992188 440.517273,595.780762 
	C442.769470,595.520447 444.754364,595.298767 446.739410,595.297180 
	C496.519470,595.257568 546.299500,595.241211 596.546753,595.171143 
	C595.855347,595.748779 594.697571,596.922974 593.538025,596.924744 
	C541.930420,597.004089 490.322754,596.980652 438.715057,596.957886 
	C438.395416,596.957764 438.075836,596.795593 437.489990,596.420776 
z"/>
<path fill="#FE8C0E" opacity="1.000000" stroke="none" 
	d="
M439.493744,428.959106 
	C440.945923,428.577606 442.857178,428.027985 444.768860,428.026306 
	C495.192230,427.982117 545.615601,427.994629 596.504456,428.000244 
	C596.974365,428.176880 596.978882,428.350708 596.966614,428.784882 
	C544.617554,429.045593 492.285278,429.045929 439.493744,428.959106 
z"/>
<path fill="#4BC488" opacity="1.000000" stroke="none" 
	d="
M751.436646,429.388519 
	C747.521423,429.622162 743.165039,429.739136 738.464722,429.666748 
	C742.412354,429.408905 746.703979,429.340363 751.436646,429.388519 
z"/>
<path fill="#4BC488" opacity="1.000000" stroke="none" 
	d="
M658.465210,429.370667 
	C655.858582,429.605255 652.819763,429.728851 649.452271,429.668335 
	C652.093445,429.409332 655.063232,429.334503 658.465210,429.370667 
z"/>
<path fill="#4BC488" opacity="1.000000" stroke="none" 
	d="
M672.466797,429.368652 
	C670.178040,429.600433 667.461853,429.720428 664.425964,429.652649 
	C666.750610,429.395569 669.395020,429.326233 672.466797,429.368652 
z"/>
<path fill="#4BC488" opacity="1.000000" stroke="none" 
	d="
M623.500610,429.364319 
	C622.159851,429.592224 620.415588,429.709473 618.389160,429.648071 
	C619.770325,429.397552 621.433655,429.325623 623.500610,429.364319 
z"/>
<path fill="#4BC488" opacity="1.000000" stroke="none" 
	d="
M601.568604,429.384949 
	C601.097778,429.593933 600.280762,429.691833 599.264038,429.619507 
	C599.783691,429.390778 600.502991,429.332306 601.568604,429.384949 
z"/>
<path fill="#4BC488" opacity="1.000000" stroke="none" 
	d="
M608.627747,429.383087 
	C608.417358,429.581696 607.902283,429.674133 607.226685,429.624756 
	C607.485107,429.414276 607.904114,429.345581 608.627747,429.383087 
z"/>
<path fill="#4BC488" opacity="1.000000" stroke="none" 
	d="
M720.725464,429.423889 
	C720.952026,429.500671 720.626343,429.729004 720.626343,429.729004 
	C720.626343,429.729004 720.239075,429.686310 720.141724,429.591675 
	C720.044434,429.497009 720.498840,429.347107 720.725464,429.423889 
z"/>
<path fill="#4BC488" opacity="1.000000" stroke="none" 
	d="
M681.732788,429.405029 
	C681.965454,429.479370 681.632446,429.722351 681.632446,429.722351 
	C681.632446,429.722351 681.231873,429.676971 681.132935,429.576569 
	C681.033936,429.476166 681.500183,429.330688 681.732788,429.405029 
z"/>
<path fill="#4BC488" opacity="1.000000" stroke="none" 
	d="
M599.232178,594.986938 
	C598.985779,542.323486 599.050354,489.700287 598.893738,437.077728 
	C598.879883,432.411041 599.899536,430.852600 604.855286,430.871307 
	C654.313599,431.057892 703.773010,431.047180 753.231506,430.892334 
	C757.782715,430.878082 759.098877,432.049347 759.084351,436.692596 
	C758.921021,488.815582 758.984070,540.939270 758.513794,593.531372 
	C707.250977,594.000000 656.460632,593.989136 605.670288,594.042725 
	C603.777649,594.044739 601.885620,594.674988 599.993347,595.012451 
	C599.823486,595.017456 599.653687,595.022461 599.232178,594.986938 
z"/>
<path fill="#4BC488" opacity="1.000000" stroke="none" 
	d="
M600.461914,595.044006 
	C601.885620,594.674988 603.777649,594.044739 605.670288,594.042725 
	C656.460632,593.989136 707.250977,594.000000 758.506958,594.000000 
	C758.978394,594.170227 758.984253,594.340515 758.986450,594.766479 
	C706.298767,595.039978 653.614624,595.057800 600.461914,595.044006 
z"/>
<path fill="#4BC488" opacity="1.000000" stroke="none" 
	d="
M597.356873,432.906372 
	C597.175903,432.832489 597.134033,432.665436 597.173340,432.253296 
	C597.613098,432.208221 597.693604,432.476562 597.356873,432.906372 
z"/>
</svg>